<?xml version="1.0" encoding="UTF-8"?><svg id="Layer_2" xmlns="http://www.w3.org/2000/svg" width="185.65" height="157.2" viewBox="0 0 185.65 157.2"><defs><style>.cls-1{fill:#eaeaea;}.cls-2{fill:#a8cd37;}</style></defs><g id="design"><path class="cls-1" d="m181.99,65.1c-1.48-4.32-3.68-8.42-6.53-12.19-1.9-2.52-4.1-4.88-6.58-7.07-2.54-2.25-5.36-4.27-8.37-6.02L92.82,1.19,25.13,39.82c-3.02,1.75-5.83,3.77-8.37,6.02C6.86,54.58,1.41,66.22,1.41,78.6s5.45,24.01,15.35,32.76c2.54,2.25,5.36,4.27,8.37,6.02l67.69,38.62,67.69-38.62c3.02-1.75,5.83-3.78,8.37-6.02,2.48-2.18,4.67-4.55,6.58-7.07,2.86-3.77,5.05-7.88,6.53-12.2,1.48-4.32,2.25-8.86,2.25-13.5s-.77-9.18-2.25-13.5Z"/><path class="cls-2" d="m183.36,64.89c1.5,4.39,2.28,9,2.28,13.71s-.78,9.32-2.28,13.71c-1.5,4.39-3.73,8.55-6.63,12.38-1.93,2.55-4.16,4.96-6.68,7.18-2.58,2.28-5.44,4.34-8.5,6.12l-68.73,39.22L24.09,117.98c-3.06-1.78-5.92-3.84-8.5-6.12C5.53,102.98,0,91.17,0,78.6s5.53-24.39,15.59-33.27c2.58-2.28,5.44-4.34,8.5-6.11L92.82,0l68.73,39.22c3.06,1.77,5.92,3.83,8.5,6.11,2.51,2.22,4.75,4.63,6.68,7.18,2.9,3.83,5.13,7.99,6.63,12.38Zm-2.23,13.71c0-11.57-5.09-22.43-14.32-30.59-2.36-2.09-4.98-3.97-7.8-5.6L92.82,4.63,27.25,42.05l-.63.36c-2.8,1.63-5.42,3.51-7.79,5.6-9.23,8.17-14.32,19.03-14.32,30.59s5.09,22.43,14.32,30.59c2.37,2.09,4.98,3.97,7.8,5.6l66.19,37.77,65.57-37.41.63-.36c2.81-1.62,5.43-3.51,7.79-5.6,9.23-8.16,14.32-19.03,14.32-30.59Z"/><path class="cls-2" d="m108.2,126.74v1.07c0,.14-.03.24-.1.32-.06.08-.16.11-.28.11-.26,0-.4-.16-.4-.48v-1.01c0-.33.13-.49.4-.49s.38.16.38.48Z"/><path class="cls-2" d="m103.83,127.02v2.87c0,.29-.03.49-.09.61s-.17.17-.32.17-.25-.05-.3-.17c-.06-.11-.08-.32-.08-.61v-2.87c0-.29.02-.49.08-.6.05-.11.16-.16.31-.16s.26.05.32.17.09.32.09.6Z"/><path class="cls-2" d="m99.41,127.02v2.87c0,.29-.03.49-.09.61s-.17.17-.32.17-.25-.05-.3-.17c-.06-.11-.08-.32-.08-.61v-2.87c0-.29.02-.49.08-.6.05-.11.16-.16.31-.16s.26.05.32.17.09.32.09.6Z"/><path class="cls-2" d="m106.31,127.84c0,.43.1.76.31,1,.2.25.49.37.85.37.14,0,.26-.02.35-.06l-1.06,2.43h1.15l1.11-2.48c.11-.25.19-.47.23-.67.04-.19.07-.43.07-.72v-.93c0-.49-.13-.87-.38-1.13s-.62-.39-1.11-.39-.85.13-1.11.39-.39.63-.39,1.1v1.09Zm-21.64-1.49h1.08v5.23h1.1v-5.23h1.07v-1h-3.26v1Zm17.25,3.55c0,.6.12,1.04.37,1.33s.62.44,1.13.44.89-.15,1.14-.44.37-.73.37-1.33v-2.89c0-.59-.12-1.03-.37-1.32-.25-.3-.63-.44-1.14-.44s-.88.14-1.13.44c-.25.29-.37.73-.37,1.32v2.89Zm-22.81-3.55v-1h-2.78v6.24h2.78v-.99h-1.68v-1.68h1.45v-.99h-1.45v-1.56h1.68Zm1.12,3.45c0,.6.15,1.05.44,1.38.29.32.71.48,1.26.48s.98-.15,1.28-.47c.3-.31.45-.76.45-1.34,0-.48-.09-.87-.29-1.16-.19-.29-.51-.53-.95-.72l-.41-.18c-.23-.1-.4-.22-.5-.35-.1-.13-.15-.31-.15-.52,0-.48.2-.72.6-.72.22,0,.37.07.47.21.09.14.14.36.15.64h1.02c-.02-.58-.17-1.03-.45-1.34-.28-.31-.67-.47-1.19-.47s-.93.16-1.23.47c-.31.31-.46.73-.46,1.26,0,.45.09.8.27,1.06.17.27.47.49.87.67l.42.19c.27.12.46.25.57.4.11.14.16.33.16.57,0,.29-.05.5-.15.63-.1.13-.26.2-.48.2s-.38-.07-.49-.22c-.11-.14-.17-.37-.19-.68h-1.04Zm15.89-2.67v-.44c0-.44-.13-.79-.39-1.05-.26-.26-.62-.39-1.06-.39s-.8.12-1.07.38c-.27.26-.41.59-.41,1.02v.55h1.07v-.42c0-.36.13-.54.38-.54s.39.16.39.49v.35c0,.2-.02.37-.06.49s-.12.28-.23.47l-1.58,2.55v.97h2.97v-1h-1.73l1.28-2.05c.16-.26.27-.48.34-.68.07-.2.11-.44.11-.71Zm1.38,2.77c0,.6.12,1.04.37,1.33s.62.44,1.13.44.89-.15,1.14-.44.37-.73.37-1.33v-2.89c0-.59-.12-1.03-.37-1.32-.25-.3-.62-.44-1.14-.44s-.88.14-1.13.44c-.25.29-.37.73-.37,1.32v2.89Zm67.78-80.16c8.73,7.72,13.54,17.97,13.54,28.86s-4.81,21.14-13.54,28.86c-2.25,1.99-4.74,3.78-7.41,5.33l-65.05,37.12L28.4,113.14l-.62-.35c-2.67-1.55-5.17-3.34-7.41-5.33-8.73-7.72-13.54-17.97-13.54-28.86s4.81-21.14,13.54-28.86c2.25-1.99,4.75-3.78,7.41-5.33L92.82,7.29l64.42,36.77.62.35c2.68,1.55,5.17,3.34,7.42,5.33Zm-26.33,18.01l7.7-15.7h-5.53l-7.25,15.36v-15.36h-5.53v35.24h5.53v-10.81l1.72-3.22,5.38,14.03h5.68l-7.7-19.54Zm.28,40.3v-10.99h-1.96v6.12l-2.3-6.12h-1.96v10.99h1.96v-5.86l2.3,5.86h1.96Zm-8.56,0v-1.75h-2.96v-2.96h2.55v-1.75h-2.55v-2.76h2.96v-1.77h-4.91v10.99h4.91Zm-7.52,0v-10.99h-1.96v4.53h-2.07v-4.53h-1.96v10.99h1.96v-4.71h2.07v4.71h1.96Zm-8.07-46.42v-1.13c0-2.85-.69-5.04-2.06-6.56s-3.35-2.29-5.91-2.29-4.6.76-6.09,2.29-2.25,3.71-2.25,6.56c0,1.85.4,3.54,1.19,5.07.79,1.52,1.78,2.8,2.95,3.84l2.85,2.95c1.05.96,1.96,2,2.71,3.15.76,1.15,1.14,2.38,1.14,3.69,0,2.3-.88,3.44-2.63,3.44h-.02c-1.77,0-2.65-1.15-2.65-3.45v-2.52h-5.68v2.16c0,2.85.76,5.04,2.29,6.56,1.52,1.53,3.57,2.29,6.14,2.29s4.56-.76,5.97-2.28,2.11-3.7,2.11-6.55c0-1.38-.2-2.65-.6-3.83-.4-1.17-.92-2.19-1.56-3.04-.64-.86-1.33-1.67-2.09-2.43s-1.52-1.47-2.29-2.16c-.77-.69-1.48-1.39-2.12-2.09-.64-.7-1.16-1.49-1.56-2.37-.4-.88-.6-1.8-.6-2.77,0-2.31.92-3.47,2.77-3.47s2.78,1.16,2.78,3.46v1.47h5.23Zm-.47,38.82v-.34c0-1.08-.28-1.89-.84-2.42-.56-.53-1.3-.8-2.22-.8s-1.72.27-2.31.81c-.59.53-.88,1.32-.88,2.37v4.95c0,1.03.28,1.81.83,2.35.55.53,1.3.8,2.25.8s1.68-.27,2.27-.8c.59-.54.89-1.34.89-2.4v-.3h-1.95v.29c0,.48-.1.84-.31,1.08-.21.24-.49.37-.84.37-.79,0-1.18-.53-1.18-1.61v-4.42c0-.57.09-1,.28-1.29.18-.28.49-.43.9-.43.35,0,.63.12.84.36.2.24.31.61.31,1.11v.32h1.96Zm-8.19-1.62v-1.77h-5.75v1.77h1.91v9.22h1.95v-9.22h1.9Zm-7.83,9.22v-10.99h-1.95v10.99h1.95Zm-4.01,0l-2.64-6.46,2.29-4.53h-1.96l-2.34,5.18v-5.18h-1.95v10.99h1.95v-2.48l.89-1.77,1.67,4.25h2.09Zm-5.02,23.54v-1.19h-1.06v1.19h1.06Zm-2.32-44.3l-5.6-35.24h-8.54l-5.61,35.24h5.53l.92-6.14h6.85l.93,6.14h5.53Zm-7.02,18.26l1.14-1.78-1.32-.91-.73,1.18-.97-1.62c.57-.61.98-1.17,1.22-1.66.25-.49.37-.97.37-1.43,0-.72-.23-1.31-.69-1.76-.46-.45-1.04-.67-1.77-.67s-1.33.22-1.79.67c-.46.45-.68,1.03-.68,1.76,0,.41.09.82.26,1.23s.47.96.89,1.63c-.64.68-1.09,1.29-1.37,1.82-.27.54-.41,1.08-.41,1.63,0,.78.23,1.4.69,1.87s1.05.7,1.8.7c.49,0,.92-.08,1.29-.25s.71-.44,1-.82c.22.35.43.59.61.72.18.13.46.19.8.19h.77v-1.61h-.19c-.15,0-.27-.03-.37-.09-.1-.06-.19-.17-.28-.32l-.28-.48Zm-12.69-4.14c.18-.38.27-.84.27-1.39,0-1.03-.23-1.78-.68-2.25-.46-.48-1.22-.71-2.3-.71h-2.98v10.99h2.98c1.09,0,1.87-.25,2.33-.75s.68-1.32.68-2.43c0-.68-.08-1.23-.25-1.64-.17-.42-.49-.73-.97-.94.43-.2.74-.49.92-.88Zm-8.3,3.76v-8.11h-1.96v8.06c0,.86-.35,1.29-1.03,1.29-.35,0-.61-.1-.78-.31s-.25-.53-.25-.98v-8.06h-1.96v8.11c0,.59.13,1.12.39,1.58.26.46.61.81,1.06,1.06.45.25.97.37,1.54.37s1.09-.12,1.54-.37c.46-.25.81-.6,1.07-1.06.25-.46.38-.98.38-1.58Zm-3.44-26.34v-4.69h-5.53v5.05c.01,2.3-.94,3.44-2.87,3.44s-2.87-1.14-2.89-3.44v-19.04c0-2.31.96-3.47,2.88-3.47s2.88,1.16,2.88,3.46v3.78h5.53v-3.44c0-2.85-.75-5.04-2.23-6.56-1.49-1.52-3.58-2.29-6.29-2.29s-4.76.76-6.17,2.29-2.12,3.71-2.12,6.56v18.33c0,2.85.71,5.04,2.12,6.56,1.41,1.53,3.46,2.29,6.17,2.29s4.8-.76,6.29-2.29c1.48-1.52,2.23-3.71,2.23-6.56Zm-4.77,21.68c0-1.16-.23-2.02-.69-2.6-.46-.57-1.23-.86-2.32-.86h-2.96v10.99h1.95v-4.06h1.02c1.06,0,1.83-.29,2.3-.86.47-.57.71-1.45.71-2.61Z"/><polygon class="cls-2" points="77.36 58.37 80.03 76.1 74.7 76.1 77.36 58.37"/><path class="cls-2" d="m77.07,103.68l1.23,2c-.22.31-.43.52-.6.64-.18.11-.38.17-.59.17-.27,0-.48-.09-.63-.27-.15-.18-.23-.45-.23-.78,0-.29.06-.56.18-.84.12-.27.34-.58.64-.93Z"/><path class="cls-2" d="m77.99,98.57c.12.15.18.37.18.65s-.05.55-.15.79c-.1.24-.3.52-.6.87-.24-.42-.41-.75-.5-.99-.09-.25-.14-.47-.14-.66,0-.28.06-.49.18-.64.12-.15.3-.23.52-.23s.38.07.5.22Z"/><path class="cls-2" d="m65.88,104.72c0,.57-.09.98-.27,1.22-.18.24-.51.36-1,.36h-.81v-3.14h.81c.46,0,.78.12.98.37.2.25.29.64.29,1.2Z"/><path class="cls-2" d="m65.58,99.11c.18.2.27.54.27,1.03s-.09.8-.27,1.01c-.18.21-.5.31-.96.31h-.83v-2.66h.83c.46,0,.78.1.96.3Z"/><path class="cls-2" d="m48.83,99.22c.17.28.25.71.25,1.29s-.08,1.01-.25,1.29c-.16.27-.45.41-.87.41h-.96v-3.41h.96c.42,0,.7.13.87.41Z"/></g></svg>