<?xml version="1.0" encoding="UTF-8"?><svg id="Layer_2" xmlns="http://www.w3.org/2000/svg" width="60" height="60" viewBox="0 0 60 60"><defs><style>.cls-1{fill:#32373c;}</style></defs><g id="design"><circle class="cls-1" cx="30" cy="30" r="5.3"/><path class="cls-1" d="m36.42,17.07c-1.68-.08-2.18-.09-6.42-.09s-4.74.02-6.42.09c-4.31.2-6.32,2.24-6.51,6.51-.08,1.68-.09,2.18-.09,6.42s.02,4.75.09,6.42c.2,4.27,2.2,6.32,6.51,6.52,1.68.08,2.18.09,6.42.09s4.75-.02,6.42-.09c4.31-.2,6.32-2.24,6.51-6.51.08-1.68.09-2.18.09-6.42s-.01-4.75-.09-6.42c-.2-4.27-2.21-6.32-6.51-6.51Zm-6.42,21.1c-4.51,0-8.16-3.66-8.16-8.16s3.65-8.16,8.16-8.16,8.16,3.65,8.16,8.16-3.65,8.16-8.16,8.16Zm8.48-14.74c-1.05,0-1.91-.85-1.91-1.91s.85-1.91,1.91-1.91,1.91.85,1.91,1.91-.85,1.91-1.91,1.91Z"/><path class="cls-1" d="m30,0C13.43,0,0,13.43,0,30s13.43,30,30,30,30-13.43,30-30S46.57,0,30,0Zm15.79,36.55c-.26,5.78-3.48,8.98-9.24,9.24-1.7.08-2.24.1-6.55.1s-4.86-.02-6.55-.1c-5.78-.26-8.98-3.47-9.24-9.24-.08-1.7-.1-2.24-.1-6.55s.02-4.86.1-6.55c.26-5.78,3.47-8.98,9.24-9.24,1.7-.08,2.24-.1,6.55-.1s4.86.02,6.55.1c5.78.26,8.98,3.48,9.24,9.24.08,1.7.1,2.24.1,6.55s-.02,4.86-.1,6.55Z"/></g></svg>