<?xml version="1.0" encoding="UTF-8"?><svg id="Layer_2" xmlns="http://www.w3.org/2000/svg" width="132.12" height="111.88" xmlns:xlink="http://www.w3.org/1999/xlink" viewBox="0 0 132.12 111.88"><defs><style>.cls-1,.cls-2{fill:none;}.cls-3{fill:#69b91c;}.cls-4{fill:#7ec025;}.cls-5{fill:#a8cd37;}.cls-6{fill:#3eac09;}.cls-7{fill:#93c62e;}.cls-8{fill:#29a500;}.cls-9{fill:#53b212;}.cls-2{clip-path:url(#clippath);}</style><clipPath id="clippath"><path class="cls-1" d="m117.63,35.4c-1.6-1.41-3.37-2.69-5.28-3.79l-.44-.25L66.06,5.19,19.77,31.61c-1.9,1.1-3.67,2.37-5.28,3.79-6.21,5.49-9.63,12.79-9.63,20.54s3.42,15.05,9.64,20.54c1.6,1.42,3.38,2.69,5.28,3.79l.44.25,45.85,26.16,46.3-26.42c1.9-1.1,3.67-2.37,5.27-3.79,6.21-5.49,9.64-12.79,9.64-20.54s-3.42-15.05-9.64-20.54Z"/></clipPath></defs><g id="design"><path class="cls-5" d="m130.5,46.18c-1.07-3.12-2.66-6.09-4.72-8.81-1.38-1.82-2.96-3.53-4.75-5.11-1.84-1.62-3.87-3.08-6.05-4.35L66.06,0,17.15,27.91c-2.18,1.26-4.22,2.73-6.05,4.35C3.94,38.59,0,47,0,55.94s3.94,17.35,11.09,23.68c1.84,1.62,3.87,3.09,6.05,4.35l48.91,27.91,48.91-27.91c2.18-1.26,4.22-2.73,6.05-4.35,1.79-1.58,3.38-3.29,4.75-5.11,2.06-2.73,3.65-5.69,4.72-8.81,1.07-3.12,1.62-6.4,1.62-9.75s-.55-6.63-1.62-9.76Zm-11.78,31.53c-1.68,1.49-3.55,2.83-5.54,3.98l-.45.26-46.66,26.63-47.11-26.88c-2-1.16-3.87-2.5-5.55-3.99-6.57-5.81-10.19-13.54-10.19-21.77s3.62-15.96,10.19-21.77c1.68-1.49,3.55-2.83,5.54-3.98l.45-.26L66.06,3.3l47.11,26.88c2,1.16,3.87,2.5,5.55,3.99,6.57,5.81,10.19,13.54,10.19,21.77s-3.62,15.96-10.19,21.77Z"/><g class="cls-2"><path class="cls-5" d="m117.63,35.4c-1.6-1.41-3.37-2.69-5.28-3.79l-.44-.25L66.06,5.19,19.77,31.61c-1.9,1.1-3.67,2.37-5.28,3.79-6.21,5.49-9.63,12.79-9.63,20.54s3.42,15.05,9.64,20.54c1.6,1.42,3.38,2.69,5.28,3.79l.44.25,45.85,26.16,46.3-26.42c1.9-1.1,3.67-2.37,5.27-3.79,6.21-5.49,9.64-12.79,9.64-20.54s-3.42-15.05-9.64-20.54Z"/><path class="cls-7" d="m110.46,48.11c-1.38-1.22-2.91-2.32-4.54-3.26l-.38-.22-39.47-22.53-39.86,22.74c-1.63.95-3.16,2.04-4.54,3.26-5.35,4.73-8.29,11.01-8.29,17.68s2.95,12.95,8.3,17.68c1.38,1.22,2.91,2.32,4.54,3.27l.38.22,39.47,22.53,39.86-22.74c1.63-.95,3.16-2.04,4.54-3.26,5.35-4.73,8.3-11.01,8.3-17.68s-2.95-12.96-8.3-17.68Z"/><path class="cls-4" d="m103.28,60.83c-1.15-1.02-2.44-1.94-3.81-2.74l-.32-.18-33.1-18.89-33.42,19.07c-1.37.79-2.65,1.71-3.81,2.74-4.48,3.96-6.95,9.23-6.95,14.83s2.47,10.86,6.96,14.83c1.15,1.02,2.44,1.94,3.81,2.74l.32.18,33.09,18.89,33.42-19.07c1.37-.79,2.65-1.71,3.81-2.74,4.49-3.96,6.95-9.23,6.95-14.83s-2.47-10.86-6.95-14.83Z"/><path class="cls-3" d="m96.11,73.54c-.93-.82-1.97-1.57-3.08-2.21l-.26-.15-26.72-15.25-26.98,15.39c-1.11.64-2.14,1.38-3.07,2.21-3.62,3.2-5.61,7.45-5.61,11.97s1.99,8.77,5.61,11.97c.93.82,1.97,1.57,3.08,2.21l.26.15,26.72,15.25,26.98-15.39c1.11-.64,2.14-1.38,3.07-2.21,3.62-3.2,5.61-7.45,5.61-11.97s-1.99-8.77-5.61-11.97Z"/><path class="cls-9" d="m88.94,86.26c-.71-.63-1.5-1.19-2.34-1.68l-.2-.11-20.34-11.61-20.54,11.72c-.84.49-1.63,1.05-2.34,1.68-2.76,2.44-4.27,5.67-4.27,9.11s1.52,6.67,4.27,9.11c.71.63,1.5,1.19,2.34,1.68l.2.11,20.34,11.61,20.54-11.72c.84-.49,1.63-1.05,2.34-1.68,2.76-2.44,4.27-5.67,4.27-9.11s-1.52-6.68-4.27-9.11Z"/><path class="cls-6" d="m81.76,98.97c-.49-.43-1.03-.82-1.61-1.15l-.13-.08-13.96-7.97-14.1,8.04c-.58.33-1.12.72-1.61,1.15-1.89,1.67-2.93,3.89-2.93,6.25s1.04,4.58,2.93,6.25c.49.43,1.03.82,1.61,1.15l.13.08,13.96,7.97,14.1-8.04c.58-.33,1.12-.72,1.61-1.15,1.89-1.67,2.93-3.89,2.93-6.25s-1.04-4.58-2.93-6.25Z"/><path class="cls-8" d="m74.59,111.68c-.26-.23-.56-.44-.87-.63l-.07-.04-7.58-4.33-7.66,4.37c-.31.18-.61.39-.87.63-1.03.91-1.59,2.11-1.59,3.4s.57,2.49,1.59,3.4c.26.23.56.45.87.63l.07.04,7.58,4.33,7.66-4.37c.31-.18.61-.39.87-.63,1.03-.91,1.59-2.11,1.59-3.4s-.57-2.49-1.59-3.4Z"/></g></g></svg>